<svg width="17" height="17" viewBox="0 0 17 17" fill="none" xmlns="http://www.w3.org/2000/svg">
<g id="loupe">
<path id="Shape" fill-rule="evenodd" clip-rule="evenodd" d="M11.75 10.32L16.958 15.527L15.544 16.941L10.339 11.737C9.22718 12.5574 7.88176 13.0001 6.5 13C2.91015 13 0 10.0899 0 6.5C0 2.91015 2.91015 0 6.5 0C10.0899 0 13 2.91015 13 6.5C13.0005 7.87391 12.5626 9.21214 11.75 10.32ZM2 6.5C2 8.981 4.019 11 6.5 11C8.981 11 11 8.981 11 6.5C11 4.019 8.981 2 6.5 2C4.019 2 2 4.019 2 6.5Z" fill="white"/>
</g>
</svg>
